<?xml version="1.0" encoding="utf-8"?>
<!-- Generator: Adobe Illustrator 22.1.0, SVG Export Plug-In . SVG Version: 6.00 Build 0)  -->
<svg version="1.1" id="Capa_1" xmlns="http://www.w3.org/2000/svg" xmlns:xlink="http://www.w3.org/1999/xlink" x="0px" y="0px"
	 viewBox="0 0 841.9 595.3" style="enable-background:new 0 0 841.9 595.3;" xml:space="preserve">
<style type="text/css">
	.st0{fill:#0066FF;}
	.st1{fill:url(#SVGID_1_);}
	.st2{fill:none;}
	.st3{fill:#FFFFFF;}
	.st4{fill:#33CCFF;}
	.st5{fill:url(#SVGID_2_);}
	.st6{fill:none;stroke:#1D1D1B;stroke-width:0.5;stroke-miterlimit:10;}
</style>
<g>
	<g>
		<path class="st0" d="M407.9,299.3v6c-5.8-1.2-9.5,1.4-9.5,6.9v15.6h-6.2v-28.5h5.8l0.3,3.7C399.5,299.9,403.4,298.3,407.9,299.3z"
			/>
		<path class="st0" d="M433.7,318.4l5.1,2c-1.6,5-6.9,8.3-13.3,8.3c-8.4,0-14.1-6-14.1-15.2c0-9.2,5.6-15.2,14-15.2
			c8,0,13.4,5.5,13.4,13.7c0,1.2-0.1,2.3-0.4,3.5h-20.9c0.1,4.9,3.3,8,8,8C429.3,323.5,432.6,321.4,433.7,318.4z M417.5,310.7h15
			c-0.1-4.3-2.8-7.1-7.1-7.1C421,303.6,417.8,306.5,417.5,310.7z"/>
		<path class="st0" d="M484.4,308.4v19.4h-6.2v-18.3c0-3.9-1.8-5.5-5-5.5c-3.2,0-5.2,2.4-5.2,6.2v17.7h-6.3v-18c0-4.2-2-5.9-5-5.9
			c-3.2,0-5.2,2.5-5.2,6.2v17.6h-6.2v-28.5h5.5l0.3,3c1.4-2.4,4.1-3.9,7.5-3.9c3.9,0,6.9,1.9,8.1,5c1.3-3.1,4.3-5,8-5
			C480.6,298.3,484.4,302,484.4,308.4z"/>
		<path class="st0" d="M505.1,298.3c8.5,0,14.7,6.2,14.7,15.2c0,9-6.2,15.2-14.8,15.2c-8.4,0-14.8-6.1-14.8-15.2
			C490.3,304.4,496.6,298.3,505.1,298.3z M505,323.1c4.9,0,8.2-3.8,8.2-9.5c0-5.7-3.3-9.5-8.2-9.5c-5,0-8.3,3.8-8.3,9.6
			C496.7,319.3,500,323.1,505,323.1z"/>
	</g>
	<g>
		<path class="st0" d="M326.7,280.7c0-5.3,1.5-10.5,4-14l0.2-0.2h-3.6l0,0c-3.3,3.4-5.1,8.6-5.1,14.2c0,5.5,1.9,10.8,5.1,14.2l0,0
			h3.6l-0.2-0.2C328.1,291.2,326.7,286.1,326.7,280.7z"/>
		<polygon class="st0" points="334.4,267.5 330.8,267.5 342.5,288.1 342.5,288.2 346.1,288.2 334.4,267.6 		"/>
		<path class="st0" d="M356.4,294.7c-2.6-3.5-4-8.6-4-14c0-5.3,1.5-10.5,4-14l0.2-0.2H353l0,0c-3.3,3.4-5.1,8.6-5.1,14.2
			c0,5.5,1.9,10.8,5.1,14.2l0,0h3.6L356.4,294.7z"/>
		<polygon class="st0" points="360.1,267.6 360,267.5 356.4,267.5 368.1,288.1 368.2,288.2 371.7,288.2 		"/>
		<path class="st0" d="M330.9,299.4h-3.6l0,0c-3.3,3.4-5.1,8.6-5.1,14.2c0,5.5,1.9,10.8,5.1,14.2l0,0h3.6l-0.2-0.2
			c-2.6-3.5-4-8.6-4-14c0-5.3,1.5-10.5,4-14L330.9,299.4z"/>
		<polygon class="st0" points="332.4,310.5 339.7,314 332.5,317.5 332.4,317.5 332.4,321.6 343.7,315.8 343.8,315.8 343.8,312.2 
			332.4,306.5 		"/>
		<polygon class="st0" points="347.9,310.4 347.9,310.6 350.5,310.6 351,300.7 351,300.6 347.3,300.6 		"/>
		<path class="st0" d="M357.5,316.5c-1.5,0-2.5,1-2.5,2.5c0,1.5,1,2.5,2.5,2.5c1.5,0,2.5-1,2.5-2.5C360,317.5,359,316.5,357.5,316.5
			z"/>
		<path class="st0" d="M357.5,306.8c-1.5,0-2.5,1-2.5,2.5c0,1.5,1,2.5,2.5,2.5c1.5,0,2.5-1,2.5-2.5C360,307.8,359,306.8,357.5,306.8
			z"/>
		<polygon class="st0" points="364.6,310.4 364.6,310.6 367.2,310.6 367.7,300.7 367.7,300.6 364,300.6 		"/>
		<path class="st0" d="M372.8,299.4L372.8,299.4l-3.6,0l0.2,0.2c2.5,3.4,4,8.6,4,14c0,5.4-1.5,10.5-4,14l-0.2,0.2h3.6l0,0
			c3.2-3.3,5.1-8.6,5.1-14.2C377.9,308,376,302.9,372.8,299.4z"/>
	</g>
</g>
</svg>
